<svg width="114" height="56" viewBox="0 0 114 56" fill="none" xmlns="http://www.w3.org/2000/svg">
<g clip-path="url(#clip0_232_1649)">
<path d="M9.68 21.12C8.8 22.8267 8.36 25.08 8.36 27.88C8.36 30.68 8.8 32.9333 9.68 34.64C10.56 36.3467 11.9333 37.2 13.8 37.2C15.6667 37.2 17.04 36.3467 17.92 34.64C18.8 32.9333 19.24 30.68 19.24 27.88C19.24 25.08 18.8 22.8267 17.92 21.12C17.04 19.4133 15.6667 18.56 13.8 18.56C11.9333 18.56 10.56 19.4133 9.68 21.12ZM13.8 42.32C9.93333 42.32 7.04 41.0133 5.12 38.4C3.2 35.76 2.24 32.2533 2.24 27.88C2.24 23.48 3.2 19.9733 5.12 17.36C7.04 14.72 9.93333 13.4 13.8 13.4C17.6667 13.4 20.56 14.72 22.48 17.36C24.4 19.9733 25.36 23.48 25.36 27.88C25.36 32.2533 24.4 35.76 22.48 38.4C20.56 41.0133 17.6667 42.32 13.8 42.32Z" fill="#23A6F0"/>
<path d="M44.48 26.656V24.904C42.448 24.584 40.576 23.664 38.864 22.144L41.096 19.432C42.344 20.52 43.472 21.216 44.48 21.52V17.944C42.8 17.512 41.568 16.936 40.784 16.216C40 15.48 39.608 14.432 39.608 13.072C39.608 11.696 40.056 10.568 40.952 9.688C41.848 8.792 43.024 8.256 44.48 8.08V6.904H47.024V8.128C48.624 8.352 50.216 9.016 51.8 10.12L49.832 12.952C48.824 12.232 47.888 11.752 47.024 11.512V14.968C48.752 15.416 50.024 16.016 50.84 16.768C51.672 17.52 52.088 18.584 52.088 19.96C52.088 21.336 51.624 22.472 50.696 23.368C49.784 24.264 48.56 24.8 47.024 24.976V26.656H44.48ZM48.248 20.152C48.248 19.816 48.16 19.536 47.984 19.312C47.808 19.088 47.488 18.88 47.024 18.688V21.64C47.84 21.384 48.248 20.888 48.248 20.152ZM44.48 11.416C43.792 11.656 43.448 12.096 43.448 12.736C43.448 13.376 43.792 13.864 44.48 14.2V11.416Z" fill="#23A6F0"/>
<path d="M42.662 39.214C44.1647 39.214 45.2567 39.508 45.938 40.096C46.6287 40.6747 46.974 41.5707 46.974 42.784C46.974 43.988 46.6193 44.87 45.91 45.43C45.21 45.99 44.1367 46.27 42.69 46.27H41.388V49H39.204V39.214H42.662ZM42.858 44.38C43.586 44.38 44.0807 44.2353 44.342 43.946C44.6033 43.6473 44.734 43.218 44.734 42.658C44.734 42.0887 44.5613 41.6873 44.216 41.454C43.88 41.2113 43.3527 41.09 42.634 41.09H41.388V44.38H42.858ZM55.1926 47.908C54.3433 48.7107 53.3446 49.112 52.1966 49.112C51.0579 49.112 50.1153 48.762 49.3686 48.062C48.6219 47.3527 48.2486 46.4053 48.2486 45.22C48.2486 44.0347 48.6266 43.092 49.3826 42.392C50.1479 41.692 51.0486 41.342 52.0846 41.342C53.1206 41.342 53.9979 41.6547 54.7166 42.28C55.4446 42.9053 55.8086 43.764 55.8086 44.856V45.976H50.3206C50.3859 46.3867 50.6006 46.7227 50.9646 46.984C51.3286 47.2453 51.7393 47.376 52.1966 47.376C52.9339 47.376 53.5406 47.1287 54.0166 46.634L55.1926 47.908ZM53.6806 44.478C53.6339 44.03 53.4659 43.6847 53.1766 43.442C52.8873 43.1993 52.5326 43.078 52.1126 43.078C51.7019 43.078 51.3239 43.204 50.9786 43.456C50.6333 43.708 50.4326 44.0487 50.3766 44.478H53.6806ZM61.4849 43.316C60.8596 43.316 60.3929 43.54 60.0849 43.988C59.7769 44.4267 59.6229 45.01 59.6229 45.738V49H57.5229V41.468H59.6229V42.462C59.8936 42.154 60.2296 41.8927 60.6309 41.678C61.0416 41.4633 61.4569 41.3513 61.8769 41.342L61.8909 43.316H61.4849ZM76.3442 42.84L73.6982 48.188H72.3962L69.7642 42.84V49H67.5802V39.214H70.5342L73.0542 44.59L75.5882 39.214H78.5282V49H76.3442V42.84ZM82.6076 45.234C82.6076 45.85 82.7803 46.354 83.1256 46.746C83.4803 47.1287 83.9283 47.32 84.4696 47.32C85.0203 47.32 85.4683 47.1287 85.8136 46.746C86.1683 46.354 86.3456 45.85 86.3456 45.234C86.3456 44.618 86.1683 44.114 85.8136 43.722C85.4683 43.33 85.0203 43.134 84.4696 43.134C83.9283 43.134 83.4803 43.33 83.1256 43.722C82.7803 44.114 82.6076 44.618 82.6076 45.234ZM88.4596 45.234C88.4596 46.326 88.0816 47.2453 87.3256 47.992C86.5696 48.7387 85.6176 49.112 84.4696 49.112C83.3309 49.112 82.3836 48.7387 81.6276 47.992C80.8716 47.2453 80.4936 46.326 80.4936 45.234C80.4936 44.142 80.8716 43.2227 81.6276 42.476C82.3836 41.72 83.3309 41.342 84.4696 41.342C85.6176 41.342 86.5696 41.72 87.3256 42.476C88.0816 43.2227 88.4596 44.142 88.4596 45.234ZM92.3194 44.8V49H90.2194V41.468H92.3194V42.308C92.9541 41.664 93.6681 41.342 94.4614 41.342C95.2547 41.342 95.9174 41.622 96.4494 42.182C96.9907 42.742 97.2614 43.4887 97.2614 44.422V49H95.1614V44.744C95.1614 43.5867 94.7367 43.008 93.8874 43.008C93.4674 43.008 93.0987 43.162 92.7814 43.47C92.4734 43.7687 92.3194 44.212 92.3194 44.8ZM101.757 42.98V46.354C101.757 46.6433 101.832 46.872 101.981 47.04C102.131 47.1987 102.308 47.278 102.513 47.278C102.905 47.278 103.237 47.1007 103.507 46.746L104.291 48.216C103.638 48.8133 102.947 49.112 102.219 49.112C101.501 49.112 100.889 48.874 100.385 48.398C99.8908 47.922 99.6434 47.2733 99.6434 46.452V42.98H98.7614V41.468H99.6434V39.214H101.757V41.468H103.577V42.98H101.757ZM107.717 44.94V49H105.617V38.612H107.717V42.308C108.352 41.664 109.061 41.342 109.845 41.342C110.639 41.342 111.306 41.622 111.847 42.182C112.389 42.742 112.659 43.4887 112.659 44.422V49H110.559V44.884C110.559 43.7267 110.135 43.148 109.285 43.148C108.865 43.148 108.497 43.302 108.179 43.61C107.871 43.9087 107.717 44.352 107.717 44.94Z" fill="#8EC2F2"/>
</g>
<defs>
<clipPath id="clip0_232_1649">
<rect width="114" height="56" fill="white"/>
</clipPath>
</defs>
</svg>
